<?xml version="1.0" encoding="UTF-8"?><svg id="Layer_1" xmlns="http://www.w3.org/2000/svg" width="512" height="512" viewBox="110.4 110.4 290.9 290.9"><path d="M281.94,284.29l8.75,12.73c12.79,4.23,11.04-11.8,19.35-15.01,2.32-.9,7.22,1.75,8.95,4.43l50.99,78.85,7.35,1.25c1.58.27,3.91,3.38,3.92,4.98,0,1.6-3.31,4.54-5.38,4.54l-239.75.02c-1.94,0-5.24-3.1-5.32-4.69-.32-6.34,7.31-2.15,11.6-9.66l12.05-21.08c3.93-6.87,9.43-12.3,16.3-16.97l38.04-75.65c2.58-5.13,3.66-8.56,8.5-12.56l8.27,14.24c7.23,1.08,6.8-5.67,8.66-10.2l12.54-30.52c.83-2.02,3.66-5.03,5.33-6.79v-60.35c.01-1.92,2.55-6.21,4.27-5.92s4.43,2.51,6.21,3.95l31.63.4c1.18.01,4.13,1.5,4.04,2.48-.09.97-.85,3.63-1.51,4.49l-7.01,9.07,7.44,10.31c.67.92,1.3,3.66,1.08,4.63s-2.77,2.31-4.01,2.32l-32.47.06.4,27.77,7.32,11.87,30.19,64.49c-.77,2.26-3.08,5.73-4.23,6.87l-8.83-12.5-7.6,4c-3.38,1.78-7.38-7.78-13.39-7.73-1.77.01-5.92,2.37-6.55,4.03l-11.38,29.99c-.58,1.52.09,6.05,1.31,7s3.81,1.63,6.26,1.73l10.66-31.17c5.41,2.53,8.44,3.76,16.06,4.31ZM215.67,345.36l10.35-10.57c1.48-1.51,1.02-6.01-.44-7.33-1.22-1.1-5.38-.84-6.62.36-12.87,12.32-23.97,24.06-34.18,37.91l7.95,6.91c7.03-10.75,14.08-18.23,22.95-27.28Z" fill="#152638"/></svg>