<?xml version="1.0" encoding="UTF-8"?><svg id="Layer_1" xmlns="http://www.w3.org/2000/svg" width="512" height="512" viewBox="107.9 108.3 295.3 295.3"><path d="M311.15,268.3c-14.3,10-18.91,10.61-33.64.36-11.31-7.87-23.81-6.83-33.89,2.03-6.88,6.04-15.68,6.93-23.49,1.62-14.73-9.99-25.81-12.77-39.78-.9-6.69,5.69-18.69,5.54-22.48-2.49,8.55-28.86,40.62-34.16,49.29-64.98l71.37-.29,26.75.17c7.52,30.82,44.74,35.97,51.63,72.12-17.42-3.77-26.54-21.08-45.75-7.64Z" fill="#152638"/><path d="M308.18,383.26l-103.66.03c-3.72-33.06-29.37-36.13-42.59-61.02,23.35,2.5,30.8-21.98,49.81-6.7,11.54,9.28,26.04,9.56,37.21-.06,7.76-6.69,16.62-7.08,24.93-.78,15.63,11.86,25.97,10.38,41.5-1.04,6.72-4.94,12.4-3.87,19.19-.3l16.62,8.73c-14.63,24.84-40.99,29.81-43,61.13Z" fill="#152638"/><path d="M356.45,309.15c-17.03-2.51-25.68-22.31-46.6-6.93-3.86,2.84-10.68,7.97-15.83,7.55-13.39-1.09-25.77-23.21-46.92-7.89-4.33,3.13-11.53,7.97-17.12,7.86-11.76-.22-24.45-22.6-44.42-8.49-4.31,3.05-9.82,6.64-15.62,7.72-4.18.78-13.3-3.66-15.21-7.39-2.58-5.04-1.91-12.5-.57-17.77,24.48,15.53,36.56-12.79,49.44-5.96,20.75,11,24.82,17.98,46.86,2.82,7.28-5.01,12.93-5.43,20.73-1.18l16.47,8.97c2.57,1.4,9.65,1.5,12.19.11l16.57-9.04c18.35-10.01,21.35,10.87,42.61,8.59l-2.58,21.03Z" fill="#152638"/><path d="M304.33,156.47l-96.63.07c-3.16-11.29-7.06-17.84-13.86-27.78l103.61-.05,20.93.16c-7.1,9.85-11.22,15.29-14.05,27.61Z" fill="#152638"/><polygon points="303.79 192.78 208.86 193.02 208.92 167.89 303.54 167.85 303.79 192.78" fill="#152638"/></svg>