<?xml version="1.0" encoding="UTF-8"?><svg id="Layer_1" xmlns="http://www.w3.org/2000/svg" width="512" height="512" viewBox="91.6 91.6 328.0 328.0"><path d="M385.52,311.64l-260.48.03c-4.47,0-8.27-3.95-8.28-7.82l-.18-118.28c0-2.23,1.73-6.76,3.27-7.94,1.85-1.42,6.67-1.24,9.56-.4l69.21,56.79,48.61-72.26c1.39-2.06,3.95-4.58,5.71-5.35,2.11-.92,7.4,1.17,9.22,2.84l50.32,75.16,67.98-55.9c1.82-1.5,6.96-2.68,9.08-2.04,2.12.65,5.47,5.07,5.47,7.43l.09,118.08c0,5.27-3.93,9.66-9.57,9.66Z" fill="#152638"/><path d="M383.75,355.83h-255.2c-3.34,0-8.34-1.31-9.49-3.35-4.85-8.55-1.92-22.34,2.22-22.66l18.2-1.38,249.13-.07c7.86,3.62,8.38,17.26,4.45,23.95-1.16,1.98-6.08,3.51-9.31,3.51Z" fill="#152638"/></svg>