<?xml version="1.0" encoding="UTF-8"?><svg id="Layer_1" xmlns="http://www.w3.org/2000/svg" width="512" height="512" viewBox="36.9 37.7 437.0 437.0"><path d="M141.5,267.93c1.04-66.67,52.99-120.65,118.77-125.02.97.2.12-4.85-1.35-5.95-7.42-5.43-10.41-18.73-2.54-26.79s20.24-8.64,27.56,1.24c6.44,8.68,4.38,19.28-6.33,30.83,66.97,6.31,116.76,58.16,119.68,125.7h-255.8Z" fill="#152638"/><path d="M181.38,323.62l112.27-.14c-1.74,36.2-45.67,5.96-75.99,33.86,20.94-2.75,38.76-6.53,58.15-5.58,15.31.75,29.23-3.22,41.18-12.38l21.03-16.12c10.39-.49,18.31-.73,28.06-2.85,1.28,10.36-4.13,19.89-12.68,26.28-15.84,11.84-30.16,23.91-45.1,36.9-10.51,9.13-23.91,16.25-38.19,16.38l-70.48.61-11.15,1.36-37.81-46.7c11.72-10.9,20.75-19.66,30.72-31.61Z" fill="#152638"/><path d="M399.43,311.01l-263.63-.15c-7.24,0-11.91-9.36-12.98-13.98-1.18-5.12,2.65-16.9,10.92-16.91l270.58-.08c7.98,0,11.31,12.15,10.47,17.16-.92,5.5-5.87,13.95-15.36,13.94Z" fill="#152638"/><path d="M159.12,440.59c-4.61,3.95-10.91,3.53-14.65-1.13l-45.18-56.4c-4.17-5.21-1.92-12.62,2.49-16.54l26.63-23.69,57,68.05c.62,2.85-1.08,8.13-3.2,9.94l-23.1,19.77Z" fill="#152638"/><path d="M377.16,145.76c-12.66-11.18-13.07-27.23-2.56-39.47,16.18-20.55-6.55-28.08.22-35.71,2.47-2.78,8.01-2.29,10.59.59,11.69,13.05,10.96,29.21-.34,41.75-12.87,14.29,5.78,29.03.32,30.55l-8.24,2.3Z" fill="#152638"/><path d="M344.43,111.24c-14.22,16.6,4.52,25.5-1.22,32.63-1.71,2.12-7.66,1.99-9.55-.26-11.03-13.12-9.63-28.1.59-40.45,13.44-16.23-6.23-24.61-1.57-31.96,1.19-1.89,7.39-3.04,9.27-1.42,12.09,10.43,13.07,29.09,2.47,41.46Z" fill="#152638"/></svg>