<?xml version="1.0" encoding="UTF-8"?><svg id="Layer_1" xmlns="http://www.w3.org/2000/svg" width="512" height="512" viewBox="105.9 105.7 300.2 300.2"><path d="M330.82,385.15l-150.49.04c-4.05,0-6.5-4.88-5.49-8.52l33.37-120.65c-23.2-20.86-31.39-52.22-20.21-81.53,10.28-26.94,36.04-47.26,67.23-47.67,30.76-.4,57.51,19.47,68.03,46.41,11.36,29.1,4.06,61.68-20.25,81.93l34.21,121.49c.93,3.3-2.08,8.5-6.41,8.5ZM275.9,261.77l-7.8-38.92c11.8-7.8,13.88-23.48,5.4-33.55-9.04-10.74-24.57-10.52-33.32-.97-9.27,10.11-8.4,25.41,3.96,34.11l-7.1,39.32h38.86Z" fill="#152638"/></svg>