<?xml version="1.0" encoding="UTF-8"?><svg id="Layer_1" xmlns="http://www.w3.org/2000/svg" width="512" height="512" viewBox="95.0 95.0 321.9 321.9"><path d="M356.57,379.33c-19.12,4.15-37.27,5.59-56.03,4.8-6.3-.27-11.25-6.9-11.83-12.23l-3.2-29.31c-1.27-11.62-3.07-24.23-8.05-34.72-7.35-15.48-8.59-30.34-8.54-47.65l.27-86.14c0-3.05,2.6-7.91,4.2-10s10.31-1.67,10.62,1.12l6.96,62.76,3.47-.17-7.8-71.79c-.32-2.98,2.28-9.44,4.39-11.23,3.03-2.57,7.42-2.99,12.52-.75l10.28,73.01-.34,3.93c-.08.95,2.34.92,4.6.84l-11.63-81.8c-.75-5.25,1.64-10.16,5.67-12.38,3.32-1.83,12.04.25,13.02,5.77l15.44,86.86c5.45-27.38-18.54-76.96-4.96-83.83,3.76-1.9,11.78.84,12.85,5.76l16.14,73.95c1.85,8.48-5.12,15.67-3.28,25.55,11.13-14.3,5.82-35.49,17.45-48.24,1.95-2.14,8.99-2.72,11.39-1.26,2.41,1.46,4.52,7.14,4.09,10.48l-6.76,53.18c-1.76,13.83-6.28,26.36-15.85,36.47-11.17,11.79-12.87,25.91-10.18,41.48l5.36,30.95c1.06,6.09-3.11,13.06-10.28,14.62Z" fill="#152638"/><path d="M155.54,379.48c-8.21-.9-12.11-8.03-10.81-14.93l6.36-33.85c2.5-13.28-.84-27.07-10.51-36.82-8.52-8.59-12.73-18.67-14.44-30.9l-8.42-60.28c-.49-3.48,1.6-9.14,4.07-10.46s9.3-.81,11.39,1.28c12.75,12.82,6.79,36.87,18.13,48.5-.59-10.76-5.12-20.45-2.99-30.12l15.36-69.68c.68-3.09,6.94-6.84,9.75-6.47,3.12.4,7.17,4.19,8.11,7.71l-12.26,71.75c.32,1.38.42,2.98,1.05,3.01s3.01.28,3,.39c-.02.14.11-2.31.16-3.35l13.25-81.96c2.8-4.1,8.27-7.3,11.75-6.55,5.71,1.25,8.41,7.34,7.49,13.28l-12.3,79.29,3.4,2.72,12.24-78.58c3.37-1.94,9.23-2.02,10.83-.1,2.06,2.46,4.16,7.16,5.54,11.05l-9.31,73.14,3.99.26,7.17-62.73c2.99-1.5,7.52-2.37,9.37-1.19,2.15,1.37,5.06,6.44,5.09,9.27l.82,99.73c.06,7-.3,16.1-3.06,22-5.82,12.41-9.85,23.74-11.52,37.18l-4.94,39.67c-.9,7.21-6.93,14.42-14.89,13.54l-52.87-5.8Z" fill="#152638"/></svg>