<?xml version="1.0" encoding="UTF-8"?><svg id="Layer_1" xmlns="http://www.w3.org/2000/svg" width="512" height="512" viewBox="94.1 91.4 323.8 323.8"><path d="M321.08,362.69l-154.12.05c-5.9,0-10.35-4.39-10.35-10.11l.02-112c0-2.82,3.7-8.18,6.88-8.18l155.54.09c2.93,0,7.82.97,9.36,2.51,1.55,1.54,2.93,5.92,2.93,8.74v108.83c0,4.76-4.29,10.07-10.25,10.07Z" fill="#152638"/><path d="M386.74,352.08l-45.34-27.5.14-61.1,44.01-26.99c1.32-.81,4.85-1.89,6.18-1.27s2.79,3.15,3.82,5.17v107.41c0,2.42-5.98,6-8.81,4.28Z" fill="#152638"/><path d="M237.98,203.75c-6.61,12.42-19.06,19.75-32.85,20.25-23.24.84-40.51-20.18-37.44-42.73,3.03-22.23,25.87-37.47,48.26-30.17,20.94,6.82,33.63,30.84,22.03,52.65Z" fill="#152638"/><path d="M282.22,150.56c20.87-5.36,40.23,8.32,45.18,27.44,5.22,20.14-7.35,39.95-28.29,45.11-18.42,4.53-38.69-6.78-43.95-26.53-5.05-18.96,5.64-40.52,27.06-46.02Z" fill="#152638"/><path d="M145.45,332.2c-9.03,7.59-29.02,3.85-29.01-3.05l.16-68.37c.01-5.79,18.69-9.13,28.89-3.02l-.04,74.44Z" fill="#152638"/></svg>