<?xml version="1.0" encoding="UTF-8"?><svg id="Layer_1" xmlns="http://www.w3.org/2000/svg" width="512" height="512" viewBox="82.8 82.7 346.5 346.5"><path d="M164.11,276.11c-14.7-1.73-25.84-12.72-27.14-28.51-2.64-32.03,7.62-63.02,26.49-88.93,1.96-2.69,7.6-2.66,9.55.07,17.89,24.94,29.56,54.57,28.35,85.31-.65,16.53-11.34,29.46-26.94,31.52l.76,20.61c25.18-6.45,49.67-9.42,75.54-10.52l.66-25.02c-30.8-4.2-39.5-32.97-34.69-63.57,4.67-29.73,16.2-57,33.38-81.57,1.23-1.76,4.84-4.12,6.7-4.19,1.85-.07,5.75,2.19,6.99,3.93,22.15,30.81,35.37,67.24,34.59,105.24-.45,21.72-15.16,38.92-36.32,40.11l.09,24.91,12.21,2.47c-18.58,11.87-28.8,26.24-35.47,45.54-3.4,9.84-14.13,15.21-23.45,19.03-38.22,11.72-72.66,27.05-108.5,48.12l-.24-73.63c18.94-11.67,37.38-20.63,57.5-27.3l-.04-23.64Z" fill="#152638"/><path d="M233.67,399.43c13.89-18.76,48.83-33.49,43.11-56.98-4.95-20.36.02-42.36,19.93-53.36l42.4,8.86.22-20.8c-14.55-1.68-24.82-12.86-26.3-28.11-3.02-31.15,8.15-61.12,25.66-87.01,1.08-1.59,4.08-3.94,5.71-3.98,1.63-.03,4.99,2.23,6.04,3.72,17.32,24.71,27.26,53.81,26.06,84.14-.64,16.36-11.32,28.83-27.64,31.44l-.13,24.09c20.55,7.29,38.4,16,56.46,28.98l.17,69.05-171.67-.02Z" fill="#152638"/></svg>