<?xml version="1.0" encoding="UTF-8"?><svg id="Layer_1" xmlns="http://www.w3.org/2000/svg" width="512" height="512" viewBox="86.0 88.7 339.6 339.6"><path d="M177.32,399.17c-19.01-11.75-38.32-17.06-59.71-16.17l-4.51-4.31c-1.29-1.23,1.49-6.98,3.49-6.94l24.95.43c2.7-1.39,9.42-6.32,10.46-9.62l16.74-52.73c-25.26-10.92-32.82-38.83-25.96-66.04,8.27-25.97,17.48-51.03,28.08-76.27,2.38-5.67,9-6.03,13.99-4.48l61.05,18.99c6.49,2.02,6.88,7.28,5.55,13.08l-17.35,75.79c-6.01,26.25-29.67,42.82-55.72,42.07l-14.44,48.19c-1.7,5.66-2.07,12.02-.42,17.45l19.63,10.11c1.94,1,3.5,6.07,2.6,7.93-.9,1.86-5.07,2.95-8.44,2.53ZM233.43,229.36l1.44-7.02c-12.59-1.84-24.47-1.27-36.66,3.46-25.95,10.06-42.8,1.82-43.31,9.46-.1,1.49,2.85,2.88,4.9,3.03,35.74,2.54,47.95-12.13,73.64-8.93Z" fill="#152638"/><path d="M393.19,382.96c-40.8-.33-56.85,21.93-63.29,15.1-1.2-1.28-.82-6.75.84-7.7l18.28-10.52c3.2-5.07,1.55-9.78-.13-15.07l-16.62-52.51c-29.54,2.21-49.16-16.28-56.83-45.45l-16.44-73.63c-1.02-4.59.76-9.44,5.42-10.94l60.89-19.56c3.78-1.22,9.39.58,11.32,4.24,13.15,24.98,22.71,50.27,30.92,77.22,6.02,27.42.46,53.25-24.64,65.58l16.35,53.34c1.88,2.99,8.18,7.9,11.33,9.45l21.05-1.23c2.57-.15,6.95,2.12,7.51,4.19.71,2.59-2.97,7.52-5.96,7.5ZM356.42,239.34l-2.7-7.89c-7.52-.01-15.91,1.57-22.42-.19l-32.34-8.71c-8.38-2.26-15.81-2.2-24.79-.69.64,3.24,2.08,7.03,3.38,8.03,9.98-1.47,19.26.15,28.13,3.14,16.65,5.6,31.29,8.42,50.75,6.31Z" fill="#152638"/><path d="M263.57,137.92c.02,2.69-2.6,6.56-5.19,6.77-2.63.21-5.99-3.34-5.96-6.35l.2-19.8c.02-2.09,2.72-5.33,4.41-5.82,2.1-.61,6.35,2.94,6.36,5.14l.18,20.08Z" fill="#152638"/><path d="M239.97,150.43c.86,1.09.53,3.91.1,5.15-.55,1.54-6.24,3.87-7.36,2.5l-11.9-14.6c-1.44-1.76-2-6.36-.84-7.94,1.49-2.02,6.71-1.93,8.49.32l11.52,14.58Z" fill="#152638"/></svg>