<?xml version="1.0" encoding="UTF-8"?><svg id="Layer_1" xmlns="http://www.w3.org/2000/svg" width="512" height="512" viewBox="62.5 62.5 387.0 387.0"><path d="M412.05,406.58H100.38c-5.85-.74-11.18-4.76-11.18-10.86l.04-279c0-7.65,6.16-11.26,13.03-11.26l309.1-.03c6.32,0,11.39,4.83,11.39,11.21l.03,279.12c0,5.59-4.14,9.65-10.74,10.83ZM296.12,184.17c-3.74-17.97-19.7-28.18-36.23-27.48-15.49.65-29.29,11.63-33.19,28.02-5.37,22.55,11.86,43.23,33.55,43.53,22.99.31,40.93-19.79,35.87-44.06ZM250.86,313.61l68.05,13.45c28.97,5.72,55.26,12.37,80.57,28.6l.8-92.14c-13.44-7.97-24.3-18.39-35.61-29.68-7.13-8.44-17.38-10.4-25.68-2.89l-45.88,40.45c-10.13,8.93-22.35,13.75-35.92,14.72l-10.7,11.45c-1.69,1.81-3.26,7.14-2.41,9.45.74,1.98,4.71,6.19,6.77,6.6ZM194.72,321.65c-1.96-1.66-4.66-6.83-4.68-9.21-.1-9.7,15.24-17,29.59-20.35,8.98-2.09,15.58-5.27,23.55-12.28l-50.05-30.89c-10.49-5.18-19.7-4.46-28.74,2.35-14.9,11.21-30.27,20.69-47.23,29.18l-.16,81.42c0,4.17,2.88,10.7,7.64,10.63,32.55-.48,64.45,1.49,96.13-1.32,11.15-.99,7.08-21.38,1.19-26.39l-27.22-23.14Z" fill="#152638"/></svg>