<?xml version="1.0" encoding="UTF-8"?><svg id="Layer_1" xmlns="http://www.w3.org/2000/svg" width="512" height="512" viewBox="116.7 116.6 278.9 278.9"><path d="M278.26,279.05c-16.08,11.8-35.84,10-49.86-3.3-24.96-23.69-39.29-90.26-42.61-127.79-.54-6.06,4.85-12.14,11.01-12.14h117.1c6.52-.02,11.57,5.65,11.16,12.28-2.17,34.53-9.79,67.99-23.03,99.93-5.09,12.28-12.83,22.99-23.76,31.02Z" fill="#152638"/><path d="M313.19,369.6c.01,2.43-4.22,6.6-7.02,6.6l-107.15-.14-1.83-18.08c-.53-5.2,1.75-14.7,9.14-14.72l96.51-.25c5.85-.02,10.25,4.93,10.28,10.29l.08,16.3Z" fill="#152638"/><path d="M360.56,202.38c-4.18,18.31-24.97,45.41-47.69,44.14,12.01-28.52,17.47-56.1,20.83-86.55l28.05-.5c3.03-.05,7.73,3.8,6.97,7.14l-8.16,35.78Z" fill="#152638"/><path d="M197.94,246c-21.67,1.79-40.45-23.29-46.89-43.22l-7.81-36.24c-.47-2.18,3.55-7.11,5.85-7.07l27.7.44c3.81,30.59,9.47,57.84,21.16,86.1Z" fill="#152638"/><path d="M278.81,335.42l-47.98-.04c8.77-14.11,14.01-26.31,15.26-42.4l18.96-.3c1.44,16.02,5.7,28.32,13.76,42.74Z" fill="#152638"/></svg>